<svg width="22" height="22" viewBox="0 0 22 22" fill="none" xmlns="http://www.w3.org/2000/svg">
<path d="M21.7185 6.70784C21.6679 5.56092 21.4824 4.77664 21.2167 4.09355C20.9425 3.36829 20.5208 2.72315 19.9725 2.18343C19.4327 1.63527 18.779 1.2094 18.0662 0.943752C17.3788 0.678107 16.5986 0.492576 15.4514 0.441977C14.2959 0.387162 13.929 0.374512 11.0021 0.374512C8.07518 0.374512 7.70827 0.387161 6.56113 0.437761C5.41399 0.48836 4.62955 0.67389 3.94633 0.939535C3.22093 1.21361 2.57567 1.63527 2.03584 2.18343C1.48757 2.72315 1.06161 3.37673 0.795914 4.08933C0.530217 4.77664 0.34465 5.55671 0.294041 6.70362C0.239215 7.85897 0.226562 8.22581 0.226562 11.1479C0.226562 14.07 0.239215 14.4411 0.289824 15.588C0.340433 16.7349 0.525999 17.5192 0.791697 18.2023C1.06583 18.9275 1.49179 19.5727 2.03584 20.1124C2.57567 20.6605 3.22937 21.0864 3.94211 21.3521C4.62955 21.6177 5.40977 21.8032 6.55691 21.8538C7.70405 21.9044 8.07096 21.9171 10.9979 21.9171C13.9247 21.9171 14.2917 21.9044 15.4388 21.8538C16.5859 21.8032 17.3704 21.6177 18.0536 21.3521C19.5002 20.7913 20.6473 19.6486 21.2082 18.1981C21.4739 17.5108 21.6595 16.7307 21.7101 15.5838C21.7607 14.4326 21.7734 14.07 21.7734 11.1437C21.7734 8.21738 21.7691 7.85897 21.7185 6.70784ZM11.0021 16.6843C7.94444 16.6843 5.4646 14.2049 5.4646 11.1479C5.4646 8.09088 7.94444 5.61152 11.0021 5.61152C14.0597 5.61152 16.5395 8.09088 16.5395 11.1479C16.5395 14.2049 14.0597 16.6843 11.0021 16.6843ZM16.7588 6.68675C16.0461 6.68675 15.4683 6.10908 15.4683 5.39648C15.4683 4.68387 16.0461 4.1062 16.7588 4.1062C17.4716 4.1062 18.0494 4.68387 18.0494 5.39648C18.0536 6.10908 17.4716 6.68675 16.7588 6.68675Z" fill="white"/>
<path d="M11.0019 14.7405C12.9864 14.7405 14.5951 13.132 14.5951 11.1479C14.5951 9.16381 12.9864 7.55538 11.0019 7.55538C9.01737 7.55538 7.40862 9.16381 7.40862 11.1479C7.40862 13.132 9.01737 14.7405 11.0019 14.7405Z" fill="white"/>
</svg>
