<svg width="27" height="14" viewBox="0 0 27 14" fill="none" xmlns="http://www.w3.org/2000/svg">
<path d="M26.0869 12.3533C26.017 12.2528 25.5931 11.4439 23.5534 9.78249C21.414 8.04236 21.7032 8.32655 24.2766 5.31411C25.8475 3.48215 26.4709 2.36287 26.2764 1.88193C26.0919 1.42722 24.9348 1.54527 24.9348 1.54527L21.0998 1.56276C21.0998 1.56276 20.8155 1.52778 20.6011 1.64146C20.3966 1.75076 20.2619 2.00435 20.2619 2.00435C20.2619 2.00435 19.6535 3.42094 18.8456 4.62767C17.135 7.17229 16.4518 7.30783 16.1725 7.15043C15.5242 6.78316 15.6838 5.66825 15.6838 4.88126C15.6838 2.41534 16.1077 1.38787 14.851 1.12117C14.432 1.03372 14.1278 0.972511 13.0606 0.963767C11.6891 0.95065 10.5321 0.968139 9.87385 1.24796C9.43499 1.43596 9.10085 1.8557 9.30532 1.87756C9.55966 1.90816 10.1332 2.01309 10.4374 2.37599C10.8314 2.84381 10.8164 3.89751 10.8164 3.89751C10.8164 3.89751 11.0408 6.80065 10.2878 7.16355C9.76912 7.41276 9.06095 6.90559 7.53491 4.59706C6.75692 3.41657 6.16346 2.10491 6.16346 2.10491C6.16346 2.10491 6.04875 1.86007 5.84927 1.73327C5.6049 1.57587 5.2608 1.52341 5.2608 1.52341L1.61025 1.5409C1.61025 1.5409 1.06167 1.55401 0.862186 1.76388C0.682651 1.95188 0.847225 2.33227 0.847225 2.33227C0.847225 2.33227 3.70482 8.19101 6.93646 11.1422C9.90377 13.8486 13.2701 13.6738 13.2701 13.6738H14.7961C14.7961 13.6738 15.2549 13.63 15.4943 13.407C15.7137 13.2016 15.7038 12.8212 15.7038 12.8212C15.7038 12.8212 15.6738 11.0242 16.6264 10.7619C17.5639 10.4995 18.7658 12.4976 20.0425 13.2628C21.005 13.8443 21.7381 13.7175 21.7381 13.7175L25.1493 13.6738C25.1493 13.6825 26.9347 13.5863 26.0869 12.3533Z" fill="white"/>
</svg>
