<svg width="27" height="19" viewBox="0 0 27 19" fill="none" xmlns="http://www.w3.org/2000/svg">
<path d="M24.9323 2.66128C24.239 1.42933 23.4859 1.20488 21.9596 1.1151C20.4284 1.01535 16.5829 0.970459 13.2561 0.970459C9.91937 0.970459 6.06887 1.01535 4.54264 1.1151C3.01641 1.20488 2.26327 1.42933 1.56499 2.66128C0.851755 3.89324 0.482666 6.01301 0.482666 9.7438C0.482666 9.74878 0.482666 9.74878 0.482666 9.74878C0.482666 9.75377 0.482666 9.75377 0.482666 9.75377V9.75876C0.482666 13.4746 0.851755 15.6093 1.56499 16.8263C2.26327 18.0583 3.01641 18.2827 4.54264 18.3875C6.07386 18.4772 9.91937 18.5271 13.2561 18.5271C16.5879 18.5271 20.4334 18.4722 21.9646 18.3875C23.4958 18.2827 24.249 18.0583 24.9373 16.8263C25.6555 15.6093 26.0196 13.4746 26.0196 9.75876C26.0196 9.75876 26.0196 9.75377 26.0196 9.74878V9.7438C26.0196 6.01301 25.6555 3.89324 24.9323 2.66128ZM10.059 14.537V4.96061L18.0393 9.74878L10.059 14.537Z" fill="white"/>
</svg>
